<?xml version="1.0" encoding="utf-8"?>
<!-- Generator: Adobe Illustrator 23.0.3, SVG Export Plug-In . SVG Version: 6.00 Build 0)  -->
<svg version="1.1" id="Layer_1" xmlns="http://www.w3.org/2000/svg" xmlns:xlink="http://www.w3.org/1999/xlink" x="0px" y="0px"
	 viewBox="0 0 2297.7 2384.2" style="enable-background:new 0 0 2297.7 2384.2;" xml:space="preserve">
<style type="text/css">
	.st0{fill:#EC2326;}
	.st1{opacity:0.61;}
	.st2{fill:#ED1C24;}
</style>
<g>
	<g>
		<path d="M1464.6,1195.7c403-76.2,653.9-285.5,653.9-583.6C2118.6,234.8,1719.9,0,1119.7,0H0v21.1L358.3,416V237.9h757
			c420.9,0,627.1,123.7,627.1,374.3c0,250.5-206.2,374.3-627.1,374.3H876.1l963,1061.3l-4.9,4.5l37.9,40.9h425.5L1464.6,1195.7z"/>
	</g>
	<circle class="st0" cx="480.3" cy="1675.2" r="417.9"/>
	<g class="st1">
		<path d="M204.5,2326.9h-88.7L95,2381.2H70.1l76.2-195.8h28.2l75.9,195.8h-25.2L204.5,2326.9z M195.9,2304.7l-26.4-69.4l-9.2-27.3
			h-0.6l-8.6,26.4l-26.7,70.3H195.9z"/>
		<path d="M509.2,2299.9h-46.9v81.3h-23.7v-195.8h74.2c39.7,0,66.2,22,66.2,57.3c0,27.9-16.6,47.5-43.3,54.6l55.2,83.9h-28.2
			L509.2,2299.9z M462.3,2277.7h50.1c27.9,0,41.5-11.6,41.5-35c0-23.4-13.6-35-41.5-35h-50.1V2277.7z"/>
		<path class="st2" d="M952.2,2283.3c0,62-35,100.8-90.8,100.8s-90.8-38.9-90.8-100.8c0-62,35-100.9,90.8-100.9
			S952.2,2221.3,952.2,2283.3z M795.5,2283.3c0,49.2,25.2,78.6,65.9,78.6c40.6,0,65.9-29.4,65.9-78.6c0-49.3-25.2-78.6-65.9-78.6
			C820.8,2204.7,795.5,2234.1,795.5,2283.3z"/>
		<path d="M1306.4,2381.2h-29.4l-81.9-131.1l-20.8-38.6h-0.3l1.2,31.4v138.2h-22.6v-195.8h29.4l81.6,130.5l21.1,39.2h0.3l-1.2-31.4
			v-138.2h22.6V2381.2z"/>
		<path d="M1542.6,2381.2h-23.7v-195.8h23.7V2381.2z"/>
		<path d="M1819.8,2304.7v76.5H1796v-76.5l-70-119.3h28.2l53.7,94.9l53.7-94.9h28.2L1819.8,2304.7z"/>
		<path d="M2236.9,2283.3c0,62-35,100.8-90.8,100.8c-55.8,0-90.8-38.9-90.8-100.8c0-62,35-100.9,90.8-100.9
			C2201.9,2182.5,2236.9,2221.3,2236.9,2283.3z M2080.3,2283.3c0,49.2,25.2,78.6,65.9,78.6c40.6,0,65.9-29.4,65.9-78.6
			c0-49.3-25.2-78.6-65.9-78.6C2105.5,2204.7,2080.3,2234.1,2080.3,2283.3z"/>
	</g>
</g>
</svg>
